# xmcd
#
# Track frame offsets:
# 150
# 17352
# 37703
# 63083
# 91507
# 117904
# 134277
# 160869
#
# Disc length: 2607 seconds
#
#
# Revision: 0
# Processed by: cddbd v1.5.2PL0 Copyright (c) Steve Scherf et al.
# Submitted via: FreeRIP 2.945 
#
DISCID=4c0a2d08
DTITLE=Parliament - Trombipulation
DYEAR=1900
DGENRE=Funk
TTITLE0=Crush It
TTITLE1=Trombipulation
TTITLE2=Long Way Around
TTITLE3=Agony of Defeet
TTITLE4=New Doo Review
TTITLE5=Let's Play House
TTITLE6=Body Language
TTITLE7=Peek-A-Groove
EXTD=
EXTT0=
EXTT1=
EXTT2=
EXTT3=
EXTT4=
EXTT5=
EXTT6=
EXTT7=
PLAYORDER=
